<?xml version="1.0" encoding="iso-8859-1"?>
<!-- Generator: Adobe Illustrator 19.0.0, SVG Export Plug-In . SVG Version: 6.00 Build 0)  -->
<svg version="1.1" id="Capa_1" xmlns="http://www.w3.org/2000/svg" xmlns:xlink="http://www.w3.org/1999/xlink" x="0px" y="0px"
	 viewBox="0 0 512 512" style="enable-background:new 0 0 512 512;" xml:space="preserve">
<g>
	<g>
		<path d="M462.676,282.635c31.427-30.93,49.316-73.375,49.316-117.635c0-90.981-74.468-165-166-165
			c-91.266,0-165.559,73.591-165.99,164.209l-8.461,93.704l-35.452-35.452V180.03c0-12.177-7.27-23.056-18.519-27.716
			c-11.251-4.659-24.084-2.108-32.694,6.503L8.81,234.884c-8.61,8.61-11.164,21.443-6.504,32.694
			c4.659,11.25,15.539,18.52,27.717,18.52h42.431L161,374.643c-0.361,4.002-5.863,64.924-7.972,88.284
			C150.633,489.256,171.409,512,197.843,512h236.299c26.424,0,47.21-22.74,44.815-49.065
			C476.408,434.698,464.312,300.747,462.676,282.635z M30.023,256.097l76.066-76.066v42.432l-33.635,33.635L30.023,256.097z
			 M164.514,335.73L99.88,271.097l21.209-21.209l46.938,46.938L164.514,335.73z M208.7,180h214.586l21.672,240H187.027L208.7,180z
			 M434.142,482H197.843c-8.834,0-15.739-7.556-14.937-16.367L184.318,450h263.349l1.413,15.642
			C449.881,474.447,442.969,482,434.142,482z M451.931,163.651c-0.698-7.73-7.178-13.651-14.939-13.651H210.836
			c7.542-67.405,65.274-120,135.156-120c74.99,0,136,60.561,136,135c0,27.109-8.209,53.385-23.121,75.504L451.931,163.651z"/>
	</g>
</g>
<g>
	<g>
		<path d="M350.671,274.422c-11.591-16.115-23.033-28.904-23.514-29.44c-2.845-3.171-6.904-4.982-11.164-4.982
			s-8.319,1.811-11.164,4.982c-0.481,0.536-11.924,13.325-23.514,29.44c-17.039,23.693-25.322,41.873-25.322,55.578
			c0,33.084,26.916,60,60,60s60-26.916,60-60C375.993,316.295,367.71,298.116,350.671,274.422z M315.992,360
			c-16.542,0-30-13.458-30-30c0-9.559,14.095-31.886,29.994-51.767c15.94,19.989,30.006,42.475,30.006,51.767
			C345.992,346.542,332.534,360,315.992,360z"/>
	</g>
</g>
<g>
</g>
<g>
</g>
<g>
</g>
<g>
</g>
<g>
</g>
<g>
</g>
<g>
</g>
<g>
</g>
<g>
</g>
<g>
</g>
<g>
</g>
<g>
</g>
<g>
</g>
<g>
</g>
<g>
</g>
</svg>
