<svg id="Capa_1" enable-background="new 0 0 512 512" height="512" viewBox="0 0 512 512" width="512" xmlns="http://www.w3.org/2000/svg"><path d="m376 320h-45v-27.893c24.478-21.105 40-52.327 40-87.107v-35h85c8.284 0 15-6.716 15-15 0-41.355-33.645-75-75-75h-16.188c-7.214-45.281-46.532-80-93.812-80h-60c-47.28 0-86.598 34.719-93.812 80h-16.188c-41.355 0-75 33.645-75 75 0 8.284 6.716 15 15 15h85v35c0 34.78 15.522 66.001 40 87.107v27.893h-45c-52.383 0-95 42.617-95 95v82c0 8.284 6.716 15 15 15h400c8.284 0 15-6.716 15-15v-82c0-52.383-42.617-95-95-95zm-150-290h60c30.681 0 56.465 21.365 63.253 50h-186.506c6.788-28.635 32.572-50 63.253-50zm-110 80h280c19.557 0 36.239 12.539 42.43 30h-364.86c6.191-17.461 22.873-30 42.43-30zm55 95v-35h170v35c0 46.869-38.131 85-85 85s-85-38.131-85-85zm25 145c8.284 0 15-6.716 15-15v-24.174c13.829 5.903 29.039 9.174 45 9.174s31.171-3.271 45-9.174v24.174c0 8.284 6.716 15 15 15h15v40h-150v-40zm-125 65c0-35.841 29.159-65 65-65h15v40h-15c-8.284 0-15 6.716-15 15v77h-50zm80 67v-62h210v62zm290 0h-50v-77c0-8.284-6.716-15-15-15h-15v-40h15c35.841 0 65 29.159 65 65z"/></svg>