<svg height="512" viewBox="0 0 60 60" width="512" xmlns="http://www.w3.org/2000/svg"><g id="001---Gardening"><path id="Shape" d="m27.535 16.856c3.15 2.11 7.557 2 11.217.957.6056287 1.5556295 1.0089287 3.1826089 1.2 4.841l.034 2.346h-13.986c-.5753574.0000832-1.1228095.2479482-1.5024705.6802602-.3796611.4323119-.5547506 1.0071898-.4805295 1.5777398l.91 7c.1281452.9858525.9609536 1.7279253 1.955 1.742l2.875 22.259c.1321885.995203.9800579 1.7392255 1.984 1.741h18.518c1.0049423-.0019749 1.8531838-.7476065 1.984-1.744l2.875-22.256c.9930478-.0138654 1.8254914-.7543357 1.955-1.739 1.019-7.839.91-6.9.91-7 .0751619-.5710282-.099499-1.1467403-.4792685-1.5797504-.3797695-.43301-.9277779-.6812794-1.5037315-.6812496h-14l.048-2.342c.182093-1.6609733.5856759-3.290103 1.2-4.844 3.658 1.046 8.067 1.152 11.216-.958 4.8-3.213 5.5-10.612 5.531-10.926.0013848-.06064934-.0033052-.12128499-.014-.181-.0056251-.16255588-.0569163-.32024166-.148-.455v-.008c-.01-.015-.026-.022-.036-.036-.0841284-.12064863-.1986673-.21690275-.332-.279-.0399696-.02681408-.0821173-.05022944-.126-.07-.288-.1-7.12-2.495-11.94.732-4.334 2.9-5.325 9.2-5.5 10.63-.4109422.5632167-.7159145 1.1965425-.9 1.869-.1853057-.6747742-.4901314-1.3108438-.9-1.878-.175-1.442-1.171-7.724-5.5-10.621-4.815-3.226-11.647-.833-11.936-.733-.0438039.01992716-.085939.04333554-.126.07-.1331034.0624565-.2475572.15863911-.332.279-.01.014-.026.021-.036.036-.0924006.13729292-.1446918.29762942-.151.463-.0121032.05990727-.0181337.12088248-.018.182.032.314.736 7.713 5.535 10.926zm-3.135-8.875 12.33 8.256c-6.792 1.297-10.684-1.4-12.33-8.256zm25.859 50.019h-18.518l-2.841-22h24.2zm4.831-24h-28.18l-.91-7h30zm-9.813-17.766 12.329-8.255c-1.648 6.886-5.56 9.541-12.329 8.255zm11.308-9.978-12.325 8.252c1.64-6.808 5.48-9.551 12.325-8.252zm-23.094 1.044c2.532 1.7 3.718 5 4.251 7.214l-12.331-8.261c2.148-.411 5.54-.653 8.08 1.047z"/><path id="Shape" d="m31 29h-2c-.5522847 0-1 .4477153-1 1s.4477153 1 1 1h2c.5522847 0 1-.4477153 1-1s-.4477153-1-1-1z"/><path id="Shape" d="m35 29c-.5522847 0-1 .4477153-1 1s.4477153 1 1 1h7c.5522847 0 1-.4477153 1-1s-.4477153-1-1-1z"/><path id="Shape" d="m11 60c5.908 0 11-15.522 11-23.143 0-7.043-3.99-9.116-8-9.669v-4.214c1.2545681-.936398 1.9954393-2.4085092 2-3.974v-14c-.0000001-2.76142371-2.2385763-4.99999989-5-4.99999989-2.76142371 0-4.99999994 2.23857618-5 4.99999989v14c.00456067 1.5654908.74543191 3.037602 2 3.974v4.214c-4.01.553-8 2.626-8 9.669 0 7.621 5.092 23.143 11 23.143zm1.807-30.923c-.525 4.857-1.307 7.251-1.807 7.838-.5-.587-1.282-2.981-1.807-7.838 1.202465-.1029996 2.411535-.1029996 3.614 0zm-4.807-24.077c.00000003-1.65685422 1.34314578-2.99999994 3-2.99999994 1.6568542 0 3 1.34314572 3 2.99999994v14c0 1.6568542-1.3431458 3-3 3-1.65685425 0-3-1.3431458-3-3zm2 18.9c.6598826.1345018 1.3401174.1345018 2 0v3.12c-.691-.025-1.291-.026-2 0zm-2.787 5.474c1.04 9.626 2.954 9.626 3.787 9.626s2.747 0 3.787-9.626c3.65.843 5.213 3.175 5.213 7.483 0 7.655-5.2 21.143-9 21.143s-9-13.488-9-21.143c0-4.308 1.563-6.64 5.213-7.483z"/><circle id="Oval" cx="11" cy="5" r="1"/></g></svg>