<?xml version="1.0" encoding="iso-8859-1"?>
<!-- Generator: Adobe Illustrator 19.0.0, SVG Export Plug-In . SVG Version: 6.00 Build 0)  -->
<svg version="1.1" id="Capa_1" xmlns="http://www.w3.org/2000/svg" xmlns:xlink="http://www.w3.org/1999/xlink" x="0px" y="0px"
	 viewBox="0 0 511.999 511.999" style="enable-background:new 0 0 511.999 511.999;" xml:space="preserve">
<g>
	<g>
		<circle cx="257.197" cy="175.992" r="14.999"/>
	</g>
</g>
<g>
	<g>
		<path d="M466.873,405.27c-0.349-0.749-0.76-1.467-1.227-2.148L363.093,253.696l-28.205-60.485
			c13.003-16.976,24.212-35.362,31.84-51.722c12.611-27.046,18.616-55.721,16.908-80.744c-1.974-28.913-14.107-49.987-34.165-59.339
			c-3.925-1.83-8.449-1.875-12.408-0.123c-3.96,1.752-6.97,5.13-8.255,9.266c-10.424,33.545-40.182,54.715-68.961,75.188
			c-1.257,0.894-2.51,1.786-3.758,2.677c-1.517-1.084-3.03-2.164-4.525-3.229c-28.528-20.323-58.026-41.337-68.374-74.635
			c-1.285-4.136-4.294-7.514-8.254-9.266c-3.96-1.751-8.484-1.708-12.408,0.123c-20.058,9.354-32.191,30.427-34.165,59.339
			c-1.708,25.022,4.296,53.697,16.908,80.744c7.896,16.932,19.144,34.802,32.115,51.133l-28.48,61.074L46.354,403.122
			c-0.467,0.681-0.878,1.4-1.227,2.148c-17.476,37.478-1.204,82.188,36.275,99.665c37.566,17.516,82.145,1.296,99.664-36.275
			c0.349-0.749,0.636-1.525,0.857-2.321l48.547-174.607l19.425-41.658c4.073,0.555,8.16,0.561,12.222,0.029l19.411,41.627
			l48.548,174.609c0.221,0.796,0.508,1.572,0.857,2.321c12.736,27.313,39.792,43.341,68.015,43.341
			c10.802,0,21.568-2.365,31.649-7.066C468.077,487.458,484.349,442.749,466.873,405.27z M172.459,128.81
			c-10.353-22.201-15.516-46.265-14.166-66.022c0.408-5.979,1.659-14.663,5.298-22.038c16,29.222,42.707,48.985,67.389,66.598
			c-13.608,11.309-25.08,23.577-31.93,38.821l-7.269,15.588C184.107,150.799,177.406,139.421,172.459,128.81z M153.377,457.022
			c-10.743,21.612-36.925,31.156-59.297,20.725C71.943,467.425,62.137,441.266,71.84,419l95.313-138.876l31.344,14.616
			L153.377,457.022z M265.422,217.89c-2.033,0.695-7.727,4.801-16.642,0.983c-0.424-0.249-0.687-0.375-0.706-0.384
			c-7.492-3.496-16.422-0.21-19.938,7.265c-0.002,0.004-0.005,0.012-0.011,0.023c-0.003,0.007-0.007,0.015-0.01,0.022
			c-0.004,0.009-0.009,0.019-0.013,0.028c-0.705,1.512-11.717,25.13-19.004,40.755c-9.839-4.588-17.349-8.09-27.188-12.677
			l44.373-95.157c0.033-0.071,0.065-0.142,0.097-0.212c7.992-17.859,28.814-32.672,50.858-48.355
			c25.774-18.335,54.378-38.684,71.177-69.42c3.636,7.374,4.885,16.051,5.293,22.028c1.349,19.758-3.815,43.822-14.167,66.022
			C324.245,161.612,291.825,204.482,265.422,217.89z M289.692,238.253c7.969-5.445,15.954-12.353,23.689-20.181l16.709,35.833
			c-9.839,4.588-17.349,8.09-27.188,12.677C298.846,257.884,293.636,246.712,289.692,238.253z M417.919,477.747
			c-22.375,10.435-48.554,0.887-59.297-20.725l-45.121-162.283c11.342-5.289,20.002-9.327,31.344-14.616l95.313,138.876
			C449.864,441.265,440.057,467.424,417.919,477.747z"/>
	</g>
</g>
<g>
</g>
<g>
</g>
<g>
</g>
<g>
</g>
<g>
</g>
<g>
</g>
<g>
</g>
<g>
</g>
<g>
</g>
<g>
</g>
<g>
</g>
<g>
</g>
<g>
</g>
<g>
</g>
<g>
</g>
</svg>
