<?xml version="1.0" encoding="iso-8859-1"?>
<!-- Generator: Adobe Illustrator 19.0.0, SVG Export Plug-In . SVG Version: 6.00 Build 0)  -->
<svg version="1.1" id="Capa_1" xmlns="http://www.w3.org/2000/svg" xmlns:xlink="http://www.w3.org/1999/xlink" x="0px" y="0px"
	 viewBox="0 0 512 512" style="enable-background:new 0 0 512 512;" xml:space="preserve">
<g>
	<g>
		<path d="M455.609,201.441c-0.753-0.243-10.799-3.429-25.771-5.708c26.75-31.651,35.378-70.755,35.833-72.893
			c1.602-7.521-2.744-15.035-10.062-17.398c-1.174-0.379-24.843-7.89-54.616-8.007c0.1-29.832-7.656-53.657-8.161-55.174
			c-2.402-7.212-9.813-11.487-17.265-9.95c-2.03,0.419-36.389,7.771-66.994,29.933c-15.372-34.139-41.34-57.337-42.653-58.495
			c-5.669-4.998-14.171-4.998-19.84,0c-1.313,1.157-27.281,24.355-42.653,58.495c-30.605-22.163-64.965-29.514-66.995-29.933
			c-7.442-1.537-14.861,2.738-17.264,9.95c-0.505,1.517-8.261,25.343-8.161,55.174c-29.775,0.116-53.444,7.628-54.616,8.007
			c-7.318,2.363-11.664,9.877-10.062,17.398c0.455,2.139,9.083,41.242,35.833,72.893c-14.973,2.28-25.018,5.465-25.771,5.709
			c-7.586,2.45-11.932,10.406-9.891,18.113c0.453,1.712,11.005,40.419,44.5,72.105V317c0,20.417,13.672,37.69,32.338,43.174
			l27.953,139.768C152.693,506.953,158.85,512,166,512h180c7.15,0,13.307-5.047,14.709-12.058l27.954-139.768
			C407.328,354.69,421,337.416,421,317v-25.341c33.496-31.686,44.047-70.394,44.5-72.105
			C467.541,211.847,463.196,203.891,455.609,201.441z M397.97,127.459c13.254-0.207,25.405,1.432,34.219,3.126
			c-4.904,14.064-14.616,35.967-31.459,52.522c-1.038-18.879-4.801-34.193-6.746-41.048
			C395.643,137.212,396.952,132.328,397.97,127.459z M300.571,113.727c16.076-27.417,48.683-41.8,67.271-48.064
			c4.17,20.879,4.906,44.54-1.709,65.072c-12.687,3.684-36.059,11.954-57.55,27.504c-4.545-10.103-10.014-19.239-15.5-27.132
			C294.978,124.813,297.486,118.988,300.571,113.727z M318.166,188.918c16.368-14.305,36.491-22.814,49.636-27.246
			c3.753,18.978,7.284,53.667-8.672,80.879c-5.929,10.112-14.66,19.328-25.969,27.449h-31.876c10.22-17.694,18.466-39.309,18.466-63
			C319.751,200.819,319.18,194.782,318.166,188.918z M256,36.472c9.061,10.225,22.037,27.314,28.965,47.543
			c-5.86,7.01-10.136,13.745-13.674,20.87c-2.989-3.012-4.977-4.789-5.371-5.136c-5.669-4.998-14.171-4.998-19.84,0
			c-0.394,0.347-2.382,2.124-5.371,5.136c-3.545-7.139-7.823-13.87-13.674-20.87C233.964,63.782,246.943,46.693,256,36.472z
			 M256.026,132.446c13.677,15.373,25.841,34.422,31.017,54.263c0.067,0.339,0.157,0.674,0.248,1.009
			c1.546,6.218,2.459,12.674,2.459,19.282c0,24.429-12.395,46.952-24.352,63h-18.796c-11.957-16.047-24.352-38.571-24.352-63
			C222.25,175.425,243.142,146.983,256.026,132.446z M144.201,65.636c26.004,8.71,53.294,24.329,67.227,48.091
			c3.086,5.261,5.593,11.087,7.489,17.38c-5.486,7.892-10.954,17.028-15.5,27.131c-21.489-15.548-44.859-23.818-57.547-27.503
			C138.231,106.941,141.146,81.068,144.201,65.636z M210.716,270h-31.877c-11.309-8.121-20.04-17.337-25.969-27.449
			c-15.968-27.231-12.419-61.952-8.667-80.912c13.119,4.401,33.196,12.883,49.633,27.274c-1.014,5.865-1.585,11.904-1.585,18.087
			C192.251,230.691,200.496,252.306,210.716,270z M79.844,130.553c8.783-1.692,20.896-3.32,34.185-3.1
			c1.019,4.87,2.327,9.757,3.987,14.606c-1.944,6.85-5.703,22.15-6.744,41.014C94.522,166.54,84.779,144.618,79.844,130.553z
			 M81.028,226.329c8.671-1.609,20.297-3.087,32.998-2.877c2.423,11.576,6.504,23.256,12.964,34.275
			c2.482,4.233,5.305,8.323,8.437,12.274h-23.648C96.026,255.136,86.37,238.1,81.028,226.329z M333.703,482H178.297l-24-120h203.406
			L333.703,482z M391,317c0,8.271-6.729,15-15,15h-0.017c-0.04,0-0.08,0-0.12,0H136.131c-0.036,0-0.072,0-0.108,0H136
			c-8.271,0-15-6.729-15-15v-17c30.77,0,243.058,0,270,0V317z M400.22,270h-23.648c3.132-3.951,5.954-8.041,8.436-12.274
			c6.46-11.016,10.54-22.695,12.963-34.268c12.648-0.197,24.29,1.287,32.987,2.895C425.612,238.133,415.959,255.15,400.22,270z"/>
	</g>
</g>
<g>
</g>
<g>
</g>
<g>
</g>
<g>
</g>
<g>
</g>
<g>
</g>
<g>
</g>
<g>
</g>
<g>
</g>
<g>
</g>
<g>
</g>
<g>
</g>
<g>
</g>
<g>
</g>
<g>
</g>
</svg>
